# xmcd CD database file
#
# Track frame offsets:
#	150
#	11670
#	25182
#	39847
#	50932
#	64558
#	78641
#	93081
#	109135
#	124541
#	139461
#	153336
#
# Disc length: 2262 seconds
#
# Revision: 0
# Processed by: cddbd v1.5.2PL0 Copyright (c) Steve Scherf et al.
# Submitted via: CDex 1.70beta2
#
DISCID=9708d40c
DTITLE=Oscar Peterson - Modern Jazz Modern Mainstream CD 084
DYEAR=2008
DGENRE=Jazz
TTITLE0=Get Happy
TTITLE1=Jumpin' With Symphony Sid
TTITLE2=Robbins Nest
TTITLE3=Exactly Like You
TTITLE4=Trio Tico
TTITLE5=Smoke Gets In Your Eyes
TTITLE6=Deep Purple
TTITLE7=I'll Remeber April
TTITLE8=Squatty Roo
TTITLE9=Easy To Love
TTITLE10=Taking A Chance On Love
TTITLE11=After All
EXTD=YEAR: 2008
EXTT0=
EXTT1=
EXTT2=
EXTT3=
EXTT4=
EXTT5=
EXTT6=
EXTT7=
EXTT8=
EXTT9=
EXTT10=
EXTT11=
PLAYORDER=
